<mxfile host="app.diagrams.net" modified="2025-10-19T12:30:00.000Z" agent="Claude Code" version="24.7.17">
  <diagram id="ai-chat-architecture" name="AI Chat Architecture (Supabase + OpenAI)">
    <mxGraphModel dx="1434" dy="844" grid="1" gridSize="10" guides="1" tooltips="1" connect="1" arrows="1" fold="1" page="1" pageScale="1" pageWidth="1169" pageHeight="827" math="0" shadow="0">
      <root>
        <mxCell id="0" />
        <mxCell id="1" parent="0" />

        <!-- Title -->
        <mxCell id="title" value="AI Chat Architecture - OdoBoo Stack (Well-Architected)" style="text;html=1;strokeColor=none;fillColor=none;align=center;verticalAlign=middle;whiteSpace=wrap;rounded=0;fontSize=24;fontStyle=1" vertex="1" parent="1">
          <mxGeometry x="240" y="40" width="680" height="40" as="geometry" />
        </mxCell>

        <!-- User Layer -->
        <mxCell id="user-layer" value="User Layer" style="rounded=0;whiteSpace=wrap;html=1;fillColor=#e1d5e7;strokeColor=#9673a6;fontSize=14;fontStyle=1;verticalAlign=top" vertex="1" parent="1">
          <mxGeometry x="80" y="120" width="1000" height="100" as="geometry" />
        </mxCell>

        <mxCell id="user" value="ðŸ‘¤ User&#xa;(Browser/Mobile)" style="rounded=1;whiteSpace=wrap;html=1;fillColor=#dae8fc;strokeColor=#6c8ebf;fontSize=12;fontStyle=1" vertex="1" parent="1">
          <mxGeometry x="120" y="150" width="200" height="50" as="geometry" />
        </mxCell>

        <mxCell id="vercel-edge" value="Vercel Edge Network&#xa;(CDN + DDoS Protection)" style="rounded=1;whiteSpace=wrap;html=1;fillColor=#d5e8d4;strokeColor=#82b366;fontSize=12;fontStyle=1" vertex="1" parent="1">
          <mxGeometry x="360" y="150" width="200" height="50" as="geometry" />
        </mxCell>

        <mxCell id="analytics" value="Vercel Analytics&#xa;(Performance Monitoring)" style="rounded=1;whiteSpace=wrap;html=1;fillColor=#fff2cc;strokeColor=#d6b656;fontSize=11" vertex="1" parent="1">
          <mxGeometry x="600" y="150" width="200" height="50" as="geometry" />
        </mxCell>

        <mxCell id="security" value="Security Headers&#xa;(CSP, CORS, Auth)" style="rounded=1;whiteSpace=wrap;html=1;fillColor=#f8cecc;strokeColor=#b85450;fontSize=11" vertex="1" parent="1">
          <mxGeometry x="840" y="150" width="200" height="50" as="geometry" />
        </mxCell>

        <!-- Frontend Layer -->
        <mxCell id="frontend-layer" value="Frontend Layer (Vercel)" style="rounded=0;whiteSpace=wrap;html=1;fillColor=#dae8fc;strokeColor=#6c8ebf;fontSize=14;fontStyle=1;verticalAlign=top" vertex="1" parent="1">
          <mxGeometry x="80" y="260" width="1000" height="140" as="geometry" />
        </mxCell>

        <mxCell id="nextjs" value="Next.js 15 App&#xa;(React Server Components)" style="rounded=1;whiteSpace=wrap;html=1;fillColor=#d5e8d4;strokeColor=#82b366;fontSize=12;fontStyle=1" vertex="1" parent="1">
          <mxGeometry x="120" y="300" width="200" height="60" as="geometry" />
        </mxCell>

        <mxCell id="chat-ui" value="Chat UI Component&#xa;- Message history&#xa;- Real-time typing&#xa;- File uploads" style="rounded=1;whiteSpace=wrap;html=1;fillColor=#fff2cc;strokeColor=#d6b656;fontSize=11;align=left;spacingLeft=10" vertex="1" parent="1">
          <mxGeometry x="360" y="300" width="200" height="80" as="geometry" />
        </mxCell>

        <mxCell id="supabase-client" value="Supabase Client SDK&#xa;- Auth (JWT)&#xa;- Realtime subscriptions&#xa;- Storage upload" style="rounded=1;whiteSpace=wrap;html=1;fillColor=#e1d5e7;strokeColor=#9673a6;fontSize=11;align=left;spacingLeft=10" vertex="1" parent="1">
          <mxGeometry x="600" y="300" width="200" height="80" as="geometry" />
        </mxCell>

        <mxCell id="state-mgmt" value="State Management&#xa;- Conversation context&#xa;- User preferences&#xa;- Cache (SWR)" style="rounded=1;whiteSpace=wrap;html=1;fillColor=#f5f5f5;strokeColor=#666666;fontSize=11;align=left;spacingLeft=10" vertex="1" parent="1">
          <mxGeometry x="840" y="300" width="200" height="80" as="geometry" />
        </mxCell>

        <!-- Backend Layer (Supabase Edge Functions) -->
        <mxCell id="backend-layer" value="Backend Layer (Supabase Edge Functions)" style="rounded=0;whiteSpace=wrap;html=1;fillColor=#f8cecc;strokeColor=#b85450;fontSize=14;fontStyle=1;verticalAlign=top" vertex="1" parent="1">
          <mxGeometry x="80" y="440" width="1000" height="180" as="geometry" />
        </mxCell>

        <mxCell id="chat-agent" value="Chat Agent&#xa;(Edge Function)&#xa;&#xa;- Request routing&#xa;- Context assembly&#xa;- Response streaming" style="rounded=1;whiteSpace=wrap;html=1;fillColor=#ffe6cc;strokeColor=#d79b00;fontSize=11;align=left;spacingLeft=10;fontStyle=1" vertex="1" parent="1">
          <mxGeometry x="120" y="480" width="180" height="120" as="geometry" />
        </mxCell>

        <mxCell id="embedding" value="Embedding Service&#xa;(Edge Function)&#xa;&#xa;- Text â†’ Vector&#xa;- Semantic search&#xa;- RAG retrieval" style="rounded=1;whiteSpace=wrap;html=1;fillColor=#ffe6cc;strokeColor=#d79b00;fontSize=11;align=left;spacingLeft=10" vertex="1" parent="1">
          <mxGeometry x="340" y="480" width="180" height="120" as="geometry" />
        </mxCell>

        <mxCell id="auth-middleware" value="Auth Middleware&#xa;(Edge Function)&#xa;&#xa;- JWT validation&#xa;- RLS context&#xa;- Rate limiting" style="rounded=1;whiteSpace=wrap;html=1;fillColor=#ffe6cc;strokeColor=#d79b00;fontSize=11;align=left;spacingLeft=10" vertex="1" parent="1">
          <mxGeometry x="560" y="480" width="180" height="120" as="geometry" />
        </mxCell>

        <mxCell id="file-processor" value="File Processor&#xa;(Edge Function)&#xa;&#xa;- PDF parsing&#xa;- Image OCR&#xa;- Text extraction" style="rounded=1;whiteSpace=wrap;html=1;fillColor=#ffe6cc;strokeColor=#d79b00;fontSize=11;align=left;spacingLeft=10" vertex="1" parent="1">
          <mxGeometry x="780" y="480" width="180" height="120" as="geometry" />
        </mxCell>

        <!-- AI/ML Layer -->
        <mxCell id="ai-layer" value="AI/ML Layer (External APIs)" style="rounded=0;whiteSpace=wrap;html=1;fillColor=#d5e8d4;strokeColor=#82b366;fontSize=14;fontStyle=1;verticalAlign=top" vertex="1" parent="1">
          <mxGeometry x="80" y="660" width="480" height="140" as="geometry" />
        </mxCell>

        <mxCell id="openai" value="OpenAI API&#xa;(gpt-4o-mini)&#xa;&#xa;Cost: ~$10/month&#xa;Direct integration" style="rounded=1;whiteSpace=wrap;html=1;fillColor=#d5e8d4;strokeColor=#82b366;fontSize=11;align=left;spacingLeft=10;fontStyle=1" vertex="1" parent="1">
          <mxGeometry x="120" y="700" width="200" height="80" as="geometry" />
        </mxCell>

        <mxCell id="embeddings-api" value="OpenAI Embeddings&#xa;(text-embedding-3-small)&#xa;&#xa;For vector search&#xa;RAG capabilities" style="rounded=1;whiteSpace=wrap;html=1;fillColor=#d5e8d4;strokeColor=#82b366;fontSize=11;align=left;spacingLeft=10" vertex="1" parent="1">
          <mxGeometry x="340" y="700" width="200" height="80" as="geometry" />
        </mxCell>

        <!-- Data Layer (Supabase) -->
        <mxCell id="data-layer" value="Data Layer (Supabase PostgreSQL)" style="rounded=0;whiteSpace=wrap;html=1;fillColor=#fff2cc;strokeColor=#d6b656;fontSize=14;fontStyle=1;verticalAlign=top" vertex="1" parent="1">
          <mxGeometry x="600" y="660" width="480" height="140" as="geometry" />
        </mxCell>

        <mxCell id="postgres" value="PostgreSQL Database&#xa;&#xa;- Conversation history&#xa;- User profiles&#xa;- App data" style="rounded=1;whiteSpace=wrap;html=1;fillColor=#ffe6cc;strokeColor=#d79b00;fontSize=11;align=left;spacingLeft=10;fontStyle=1" vertex="1" parent="1">
          <mxGeometry x="640" y="700" width="180" height="80" as="geometry" />
        </mxCell>

        <mxCell id="pgvector" value="pg_vector Extension&#xa;&#xa;- Vector embeddings&#xa;- Semantic search&#xa;- Similarity queries" style="rounded=1;whiteSpace=wrap;html=1;fillColor=#e1d5e7;strokeColor=#9673a6;fontSize=11;align=left;spacingLeft=10" vertex="1" parent="1">
          <mxGeometry x="860" y="700" width="180" height="80" as="geometry" />
        </mxCell>

        <!-- Storage Layer -->
        <mxCell id="storage-layer" value="Storage Layer (Supabase Storage)" style="rounded=0;whiteSpace=wrap;html=1;fillColor=#f5f5f5;strokeColor=#666666;fontSize=14;fontStyle=1;verticalAlign=top" vertex="1" parent="1">
          <mxGeometry x="80" y="840" width="1000" height="100" as="geometry" />
        </mxCell>

        <mxCell id="file-storage" value="File Storage&#xa;(S3-compatible)&#xa;&#xa;- Chat attachments&#xa;- Knowledge base docs" style="rounded=1;whiteSpace=wrap;html=1;fillColor=#f5f5f5;strokeColor=#666666;fontSize=11;align=left;spacingLeft=10" vertex="1" parent="1">
          <mxGeometry x="120" y="880" width="200" height="40" as="geometry" />
        </mxCell>

        <mxCell id="cache" value="Cache Layer&#xa;(Supabase Realtime)&#xa;&#xa;- Active conversations&#xa;- Presence tracking" style="rounded=1;whiteSpace=wrap;html=1;fillColor=#f5f5f5;strokeColor=#666666;fontSize=11;align=left;spacingLeft=10" vertex="1" parent="1">
          <mxGeometry x="360" y="880" width="200" height="40" as="geometry" />
        </mxCell>

        <mxCell id="rls" value="Row Level Security&#xa;&#xa;- Company-scoped data&#xa;- User permissions" style="rounded=1;whiteSpace=wrap;html=1;fillColor=#f8cecc;strokeColor=#b85450;fontSize=11;align=left;spacingLeft=10" vertex="1" parent="1">
          <mxGeometry x="600" y="880" width="200" height="40" as="geometry" />
        </mxCell>

        <mxCell id="backup" value="Automated Backups&#xa;&#xa;- Point-in-time recovery&#xa;- Daily snapshots" style="rounded=1;whiteSpace=wrap;html=1;fillColor=#fff2cc;strokeColor=#d6b656;fontSize=11;align=left;spacingLeft=10" vertex="1" parent="1">
          <mxGeometry x="840" y="880" width="200" height="40" as="geometry" />
        </mxCell>

        <!-- Connections -->
        <mxCell id="conn1" style="edgeStyle=orthogonalEdgeStyle;rounded=0;orthogonalLoop=1;jettySize=auto;html=1;exitX=0.5;exitY=1;exitDx=0;exitDy=0;entryX=0.5;entryY=0;entryDx=0;entryDy=0;strokeWidth=2;strokeColor=#6c8ebf;" edge="1" parent="1" source="user" target="nextjs">
          <mxGeometry relative="1" as="geometry" />
        </mxCell>
        <mxCell id="conn1-label" value="HTTPS" style="edgeLabel;html=1;align=center;verticalAlign=middle;resizable=0;points=[];fontSize=10;fontStyle=1" vertex="1" connectable="0" parent="conn1">
          <mxGeometry x="-0.1" y="1" relative="1" as="geometry">
            <mxPoint as="offset" />
          </mxGeometry>
        </mxCell>

        <mxCell id="conn2" style="edgeStyle=orthogonalEdgeStyle;rounded=0;orthogonalLoop=1;jettySize=auto;html=1;exitX=0.5;exitY=1;exitDx=0;exitDy=0;entryX=0.5;entryY=0;entryDx=0;entryDy=0;strokeWidth=2;strokeColor=#82b366;" edge="1" parent="1" source="chat-ui" target="chat-agent">
          <mxGeometry relative="1" as="geometry" />
        </mxCell>
        <mxCell id="conn2-label" value="Chat API" style="edgeLabel;html=1;align=center;verticalAlign=middle;resizable=0;points=[];fontSize=10;fontStyle=1" vertex="1" connectable="0" parent="conn2">
          <mxGeometry x="-0.1" y="1" relative="1" as="geometry">
            <mxPoint as="offset" />
          </mxGeometry>
        </mxCell>

        <mxCell id="conn3" style="edgeStyle=orthogonalEdgeStyle;rounded=0;orthogonalLoop=1;jettySize=auto;html=1;exitX=0.5;exitY=1;exitDx=0;exitDy=0;entryX=0.5;entryY=0;entryDx=0;entryDy=0;strokeWidth=2;strokeColor=#d79b00;" edge="1" parent="1" source="chat-agent" target="openai">
          <mxGeometry relative="1" as="geometry" />
        </mxCell>
        <mxCell id="conn3-label" value="LLM Request" style="edgeLabel;html=1;align=center;verticalAlign=middle;resizable=0;points=[];fontSize=10;fontStyle=1" vertex="1" connectable="0" parent="conn3">
          <mxGeometry x="-0.1" y="1" relative="1" as="geometry">
            <mxPoint as="offset" />
          </mxGeometry>
        </mxCell>

        <mxCell id="conn4" style="edgeStyle=orthogonalEdgeStyle;rounded=0;orthogonalLoop=1;jettySize=auto;html=1;exitX=0.5;exitY=1;exitDx=0;exitDy=0;entryX=0.5;entryY=0;entryDx=0;entryDy=0;strokeWidth=2;strokeColor=#9673a6;" edge="1" parent="1" source="embedding" target="pgvector">
          <mxGeometry relative="1" as="geometry" />
        </mxCell>
        <mxCell id="conn4-label" value="Vector Store" style="edgeLabel;html=1;align=center;verticalAlign=middle;resizable=0;points=[];fontSize=10;fontStyle=1" vertex="1" connectable="0" parent="conn4">
          <mxGeometry x="-0.1" y="1" relative="1" as="geometry">
            <mxPoint as="offset" />
          </mxGeometry>
        </mxCell>

        <mxCell id="conn5" style="edgeStyle=orthogonalEdgeStyle;rounded=0;orthogonalLoop=1;jettySize=auto;html=1;exitX=0.25;exitY=1;exitDx=0;exitDy=0;entryX=0.5;entryY=0;entryDx=0;entryDy=0;strokeWidth=2;strokeColor=#d6b656;" edge="1" parent="1" source="chat-agent" target="postgres">
          <mxGeometry relative="1" as="geometry">
            <Array as="points">
              <mxPoint x="165" y="640" />
              <mxPoint x="730" y="640" />
            </Array>
          </mxGeometry>
        </mxCell>
        <mxCell id="conn5-label" value="Save History" style="edgeLabel;html=1;align=center;verticalAlign=middle;resizable=0;points=[];fontSize=10;fontStyle=1" vertex="1" connectable="0" parent="conn5">
          <mxGeometry x="-0.1" y="1" relative="1" as="geometry">
            <mxPoint as="offset" />
          </mxGeometry>
        </mxCell>

        <mxCell id="conn6" style="edgeStyle=orthogonalEdgeStyle;rounded=0;orthogonalLoop=1;jettySize=auto;html=1;exitX=0.75;exitY=1;exitDx=0;exitDy=0;entryX=0.25;entryY=0;entryDx=0;entryDy=0;strokeWidth=2;strokeColor=#666666;dashed=1;" edge="1" parent="1" source="file-processor" target="file-storage">
          <mxGeometry relative="1" as="geometry">
            <Array as="points">
              <mxPoint x="915" y="820" />
              <mxPoint x="170" y="820" />
            </Array>
          </mxGeometry>
        </mxCell>
        <mxCell id="conn6-label" value="Upload Files" style="edgeLabel;html=1;align=center;verticalAlign=middle;resizable=0;points=[];fontSize=10;fontStyle=1" vertex="1" connectable="0" parent="conn6">
          <mxGeometry x="-0.1" y="1" relative="1" as="geometry">
            <mxPoint as="offset" />
          </mxGeometry>
        </mxCell>

        <!-- Well-Architected Pillars -->
        <mxCell id="pillars" value="Azure Well-Architected Framework Pillars" style="rounded=0;whiteSpace=wrap;html=1;fillColor=#e1d5e7;strokeColor=#9673a6;fontSize=14;fontStyle=1;verticalAlign=top;align=left;spacingLeft=10" vertex="1" parent="1">
          <mxGeometry x="80" y="980" width="1000" height="120" as="geometry" />
        </mxCell>

        <mxCell id="pillar1" value="âœ… Reliability&#xa;- Vercel Edge (global CDN)&#xa;- Supabase backups&#xa;- Health checks (CI/CD)" style="rounded=1;whiteSpace=wrap;html=1;fillColor=#d5e8d4;strokeColor=#82b366;fontSize=10;align=left;spacingLeft=10;verticalAlign=top" vertex="1" parent="1">
          <mxGeometry x="100" y="1020" width="180" height="60" as="geometry" />
        </mxCell>

        <mxCell id="pillar2" value="âœ… Security&#xa;- RLS policies&#xa;- JWT auth&#xa;- GitHub Secrets" style="rounded=1;whiteSpace=wrap;html=1;fillColor=#f8cecc;strokeColor=#b85450;fontSize=10;align=left;spacingLeft=10;verticalAlign=top" vertex="1" parent="1">
          <mxGeometry x="300" y="1020" width="180" height="60" as="geometry" />
        </mxCell>

        <mxCell id="pillar3" value="âœ… Cost Optimization&#xa;- Supabase free tier&#xa;- Vercel Hobby ($0)&#xa;- OpenAI direct ($10/mo)" style="rounded=1;whiteSpace=wrap;html=1;fillColor=#fff2cc;strokeColor=#d6b656;fontSize=10;align=left;spacingLeft=10;verticalAlign=top" vertex="1" parent="1">
          <mxGeometry x="500" y="1020" width="180" height="60" as="geometry" />
        </mxCell>

        <mxCell id="pillar4" value="âœ… Operational Excellence&#xa;- GitHub Actions CI/CD&#xa;- Vercel Analytics&#xa;- Supabase logs" style="rounded=1;whiteSpace=wrap;html=1;fillColor=#dae8fc;strokeColor=#6c8ebf;fontSize=10;align=left;spacingLeft=10;verticalAlign=top" vertex="1" parent="1">
          <mxGeometry x="700" y="1020" width="180" height="60" as="geometry" />
        </mxCell>

        <mxCell id="pillar5" value="âœ… Performance Efficiency&#xa;- Edge caching&#xa;- Connection pooler&#xa;- Response < 3s" style="rounded=1;whiteSpace=wrap;html=1;fillColor=#e1d5e7;strokeColor=#9673a6;fontSize=10;align=left;spacingLeft=10;verticalAlign=top" vertex="1" parent="1">
          <mxGeometry x="900" y="1020" width="160" height="60" as="geometry" />
        </mxCell>

      </root>
    </mxGraphModel>
  </diagram>
</mxfile>
